<svg xmlns="http://www.w3.org/2000/svg" width="2700mm" height="190mm" viewBox="0 0 2700 190" role="img" aria-label="Vista de instalacion de dos bandas publicitarias Modo Pizzas separadas por puerta">
  <title>Vista con puerta - Modo Pizzas</title>
  <desc>Vista referencial de instalacion: vidrio izquierdo, puerta central y vidrio derecho.</desc>
  <defs>
    <style>
      .word { font-family: Arial Black, Impact, Helvetica, sans-serif; font-weight: 900; letter-spacing: 0; }
      .headline { font-family: Arial Black, Impact, Helvetica, sans-serif; font-weight: 900; letter-spacing: 0; }
      .copy { font-family: Arial, Helvetica, sans-serif; font-weight: 900; letter-spacing: 0; }
      .label { font-family: Arial, Helvetica, sans-serif; font-weight: 800; letter-spacing: 0; }
    </style>
    <pattern id="pepper" width="72" height="48" patternUnits="userSpaceOnUse">
      <circle cx="14" cy="16" r="4" fill="#151513" opacity="0.16"/>
      <circle cx="51" cy="34" r="3" fill="#151513" opacity="0.12"/>
    </pattern>
  </defs>
  <rect width="2700" height="190" fill="#ebe6dc"/>
  <rect x="20" y="20" width="1180" height="150" fill="#151513"/>
  <rect x="20" y="27" width="1180" height="136" fill="#c43d2f"/>
  <path d="M20 27 H1200 V56 C1039 53 946 97 797 78 C659 60 560 34 418 65 C256 100 157 67 20 93 Z" fill="#f2b94d"/>
  <path d="M20 133 C144 102 240 145 374 117 C514 88 606 136 754 104 C884 76 978 106 1100 86 C1138 80 1167 71 1200 64 V170 H20 Z" fill="#151513"/>
  <rect x="20" y="20" width="1180" height="150" fill="url(#pepper)"/>
  <path d="M38 38 H1182 M38 152 H1182" stroke="#fff4e3" stroke-width="3" stroke-linecap="round"/>
  <g transform="translate(54 45)">
    <circle cx="50" cy="50" r="49" fill="#fff4e3"/>
    <circle cx="50" cy="50" r="42" fill="#f2b94d"/>
    <path d="M50 10 L55 51 L91 30 A42 42 0 0 0 50 10 Z" fill="#f7d27a"/>
    <path d="M50 10 L55 51 L91 30" fill="none" stroke="#7a351d" stroke-width="3.5" stroke-linecap="round"/>
    <circle cx="34" cy="35" r="6.5" fill="#c43d2f"/>
    <circle cx="64" cy="31" r="5.5" fill="#c43d2f"/>
    <circle cx="67" cy="68" r="7" fill="#c43d2f"/>
    <circle cx="37" cy="70" r="4.8" fill="#216869"/>
    <circle cx="80" cy="50" r="4.8" fill="#216869"/>
  </g>
  <text class="word" x="168" y="89" font-size="53" fill="#fff4e3">modo</text>
  <text class="word" x="354" y="89" font-size="53" fill="#ffffff">pizzas</text>
  <text class="headline" x="168" y="136" font-size="41" fill="#f2b94d">PIZZA HECHA AL MOMENTO</text>
  <g transform="translate(790 53)">
    <rect x="0" y="0" width="318" height="38" rx="19" fill="#fff4e3"/>
    <text class="copy" x="24" y="27" font-size="18" fill="#151513">MASA FRESCA</text>
    <circle cx="152" cy="19" r="4" fill="#c43d2f"/>
    <text class="copy" x="172" y="27" font-size="18" fill="#151513">QUESO FUNDIDO</text>
  </g>
  <g transform="translate(910 104)">
    <text class="copy" x="0" y="31" font-size="24" fill="#fff4e3">ENTRA POR AQUI</text>
    <path d="M207 22 H279 M255 0 L283 22 L255 44" fill="none" stroke="#f2b94d" stroke-width="10" stroke-linecap="round" stroke-linejoin="round"/>
  </g>
  <rect x="1220" y="20" width="260" height="150" fill="#f8f7f3" stroke="#c9c1b2" stroke-width="2" stroke-dasharray="10 8"/>
  <text class="label" x="1288" y="101" font-size="28" fill="#696760">PUERTA</text>
  <rect x="1500" y="20" width="1180" height="150" fill="#151513"/>
  <rect x="1500" y="27" width="1180" height="136" fill="#c43d2f"/>
  <path d="M1500 27 H2680 V85 C2534 110 2442 58 2290 90 C2132 123 2017 63 1862 96 C1717 126 1623 98 1500 121 Z" fill="#f2b94d"/>
  <path d="M1500 139 C1630 111 1735 143 1870 119 C2022 92 2140 145 2294 111 C2434 80 2536 109 2680 74 V170 H1500 Z" fill="#151513"/>
  <rect x="1500" y="20" width="1180" height="150" fill="url(#pepper)"/>
  <path d="M1518 38 H2662 M1518 152 H2662" stroke="#fff4e3" stroke-width="3" stroke-linecap="round"/>
  <g transform="translate(1538 74)">
    <path d="M75 22 H0 M28 0 L0 22 L28 44" fill="none" stroke="#f2b94d" stroke-width="10" stroke-linecap="round" stroke-linejoin="round"/>
    <text class="copy" x="100" y="31" font-size="25" fill="#fff4e3">ENTRA Y PIDE</text>
  </g>
  <text class="headline" x="1843" y="93" font-size="60" fill="#ffffff">ANTOJO EN</text>
  <text class="headline" x="1843" y="144" font-size="49" fill="#f2b94d">MODO PIZZA</text>
  <g transform="translate(2302 53)">
    <rect x="0" y="0" width="248" height="84" rx="42" fill="#fff4e3"/>
    <text class="copy" x="33" y="35" font-size="25" fill="#151513">PIDE</text>
    <text class="copy" x="33" y="66" font-size="31" fill="#c43d2f">AQUI</text>
  </g>
  <g transform="translate(2563 54)">
    <circle cx="40" cy="40" r="39" fill="#fff4e3"/>
    <circle cx="40" cy="40" r="32" fill="#f2b94d"/>
    <path d="M18 29 C41 16 63 18 78 31 L38 73 Z" fill="#f7d27a" stroke="#7a351d" stroke-width="3"/>
    <circle cx="42" cy="38" r="5.5" fill="#c43d2f"/>
    <circle cx="56" cy="50" r="5.5" fill="#c43d2f"/>
    <circle cx="34" cy="57" r="4.5" fill="#216869"/>
  </g>
  <text class="label" x="25" y="185" font-size="12" fill="#696760">Cada vidrio: 118 cm x 15 cm. La puerta central es solo referencia visual.</text>
</svg>
